<svg width="24" height="24" viewBox="0 0 24 24" fill="none" xmlns="http://www.w3.org/2000/svg">
<path d="M11.972 20.25H4.47201M11.972 20.25V21.75C11.972 22.1478 11.814 22.5294 11.5327 22.8107C11.2514 23.092 10.8698 23.25 10.472 23.25H5.97201C5.57419 23.25 5.19265 23.092 4.91135 22.8107C4.63005 22.5294 4.47201 22.1478 4.47201 21.75V20.25M11.972 20.25L14.703 2.478C14.7359 2.2643 14.7222 2.04602 14.6628 1.83812C14.6034 1.63022 14.4998 1.43761 14.359 1.27349C14.2183 1.10937 14.0437 0.977615 13.8473 0.88726C13.6509 0.796905 13.4372 0.750082 13.221 0.75H3.22101C3.00471 0.749938 2.79096 0.796655 2.59441 0.886947C2.39786 0.977239 2.22317 1.10897 2.0823 1.27311C1.94144 1.43725 1.83773 1.62991 1.77831 1.83788C1.71888 2.04585 1.70513 2.26422 1.73801 2.478L4.47201 20.25M8.28001 6.25V12.25M5.28001 9.25H11.28" stroke="white" stroke-width="1.5" stroke-linecap="round" stroke-linejoin="round"/>
</svg>
