<svg width="89" height="40" viewBox="0 0 89 40" fill="none" xmlns="http://www.w3.org/2000/svg">
<g clip-path="url(#clip0_203_151)">
<path d="M0 0H20C31.0457 0 40 8.95431 40 20C40 31.0457 31.0457 40 20 40H0V0Z" fill="#D9D9D9"/>
<path fill-rule="evenodd" clip-rule="evenodd" d="M11.3035 18C11.3035 16.6471 11.6466 15.3162 12.3008 14.1319C12.9549 12.9477 13.8988 11.9486 15.044 11.2283C16.1892 10.5079 17.4984 10.0898 18.8491 10.0129C20.1999 9.93608 21.5481 10.2031 22.7676 10.7889C23.9871 11.3747 25.0381 12.2603 25.8224 13.3628C26.6066 14.4652 27.0985 15.7486 27.2519 17.0928C27.4053 18.437 27.2153 19.7981 26.6997 21.049C26.1841 22.2998 25.3596 23.3994 24.3035 24.245V28.5C24.3035 28.8978 24.1455 29.2794 23.8642 29.5607C23.5829 29.842 23.2013 30 22.8035 30H17.8035C17.4057 30 17.0241 29.842 16.7428 29.5607C16.4615 29.2794 16.3035 28.8978 16.3035 28.5V27H15.0695C14.3382 27 13.6322 26.733 13.084 26.2491C12.5357 25.7651 12.1832 25.0976 12.0925 24.372L11.9525 23.249L11.2055 23.1C10.9879 23.0564 10.7827 22.9651 10.6046 22.8326C10.4266 22.7002 10.2801 22.5298 10.1759 22.3339C10.0716 22.138 10.0121 21.9214 10.0017 21.6997C9.99122 21.4781 10.0301 21.2568 10.1155 21.052L11.3055 18.194C11.3041 18.1293 11.3034 18.0647 11.3035 18ZM19.3035 12C18.4965 12 17.6978 12.1627 16.9552 12.4785C16.2126 12.7943 15.5413 13.2567 14.9815 13.8379C14.4217 14.4192 13.985 15.1074 13.6973 15.8614C13.4097 16.6153 13.2771 17.4196 13.3075 18.226C13.3155 18.436 13.2805 18.656 13.1925 18.866L12.1955 21.259L12.6975 21.359C13.0062 21.4208 13.2876 21.5782 13.5019 21.8088C13.7162 22.0394 13.8525 22.3316 13.8915 22.644L14.0765 24.124C14.1067 24.366 14.2244 24.5886 14.4072 24.7499C14.5901 24.9112 14.8256 25.0002 15.0695 25H16.8035C17.2013 25 17.5829 25.158 17.8642 25.4393C18.1455 25.7206 18.3035 26.1022 18.3035 26.5V28H22.3035V24.006C22.3035 23.509 22.5475 23.069 22.9125 22.794C23.9181 22.0372 24.6602 20.9834 25.0339 19.7816C25.4076 18.5798 25.3939 17.291 24.9949 16.0974C24.5958 14.9038 23.8315 13.866 22.8101 13.1306C21.7888 12.3953 20.562 11.9998 19.3035 12Z" fill="black"/>
</g>
<defs>
<clipPath id="clip0_203_151">
<rect width="89" height="40" fill="white"/>
</clipPath>
</defs>
</svg>
