<svg width="57" height="40" viewBox="0 0 57 40" fill="none" xmlns="http://www.w3.org/2000/svg">
<path d="M0 0H37C48.0457 0 57 8.95431 57 20C57 31.0457 48.0457 40 37 40H0V0Z" fill="#D9D9D9"/>
<path fill-rule="evenodd" clip-rule="evenodd" d="M34.314 16.038C32.907 15.073 30.942 14.078 28.927 14.002C28.121 13.972 27.445 14.307 26.76 14.647C26.568 14.743 26.375 14.838 26.179 14.927C26.024 14.996 25.976 14.996 25.821 14.927C25.6258 14.8375 25.4325 14.7441 25.241 14.647C24.556 14.307 23.879 13.971 23.073 14.002C21.058 14.078 19.093 15.073 17.686 16.038C16.763 16.67 15 17.684 15 19C15 20.451 16.937 22.116 17.914 22.948C19.73 24.496 22.451 26 26 26C29.549 26 32.27 24.496 34.086 22.95C35.102 22.083 37 20.512 37 19C37 17.723 35.206 16.65 34.314 16.038ZM26 21C29.153 21 32.182 20.51 35 19.609C33.4892 19.2031 31.9314 18.9983 30.367 19C28.855 19 27.39 19.188 26 19.54C24.5723 19.1801 23.1054 18.9988 21.633 19C20.024 19 18.469 19.213 17 19.609C19.91 20.5354 22.9461 21.0047 26 21Z" fill="#FF0000"/>
</svg>
