<svg width="330" height="40" viewBox="0 0 330 40" fill="none" xmlns="http://www.w3.org/2000/svg">
<g filter="url(#filter0_b_11_201)">
<rect width="257" height="40" rx="20" fill="white" fill-opacity="0.7"/>
<path fill-rule="evenodd" clip-rule="evenodd" d="M317.273 14.5455C317.273 16.4743 316.507 18.3242 315.143 19.6881C313.779 21.052 311.929 21.8182 310 21.8182C308.071 21.8182 306.222 21.052 304.858 19.6881C303.494 18.3242 302.728 16.4743 302.728 14.5455C302.728 12.6166 303.494 10.7668 304.858 9.40287C306.222 8.03897 308.071 7.27274 310 7.27274C311.929 7.27274 313.779 8.03897 315.143 9.40287C316.507 10.7668 317.273 12.6166 317.273 14.5455ZM313.637 14.5455C313.637 15.5099 313.254 16.4348 312.572 17.1168C311.89 17.7987 310.965 18.1818 310 18.1818C309.036 18.1818 308.111 17.7987 307.429 17.1168C306.747 16.4348 306.364 15.5099 306.364 14.5455C306.364 13.581 306.747 12.6561 307.429 11.9742C308.111 11.2922 309.036 10.9091 310 10.9091C310.965 10.9091 311.89 11.2922 312.572 11.9742C313.254 12.6561 313.637 13.581 313.637 14.5455Z" fill="white" fill-opacity="0.7"/>
<path fill-rule="evenodd" clip-rule="evenodd" d="M310 0C298.955 0 290 8.95455 290 20C290 31.0455 298.955 40 310 40C321.045 40 330 31.0455 330 20C330 8.95455 321.045 0 310 0ZM293.636 20C293.636 23.8 294.933 27.2982 297.105 30.0764C298.631 28.0725 300.6 26.4486 302.857 25.3315C305.114 24.2143 307.6 23.6342 310.118 23.6364C312.604 23.634 315.058 24.1991 317.293 25.2887C319.527 26.3783 321.484 27.9635 323.013 29.9236C324.588 27.8575 325.649 25.4458 326.107 22.8883C326.565 20.3308 326.408 17.701 325.648 15.2163C324.888 12.7317 323.548 10.4637 321.737 8.60007C319.927 6.73641 317.699 5.33065 315.237 4.49911C312.775 3.66756 310.151 3.43413 307.582 3.81813C305.012 4.20214 302.571 5.19253 300.46 6.70737C298.349 8.22221 296.629 10.2179 295.442 12.5294C294.256 14.8409 293.637 17.4018 293.636 20ZM310 36.3636C306.244 36.3693 302.6 35.077 299.687 32.7055C300.86 31.0268 302.421 29.6562 304.237 28.7103C306.053 27.7645 308.071 27.2713 310.118 27.2727C312.14 27.2711 314.134 27.752 315.933 28.6753C317.732 29.5987 319.284 30.9379 320.462 32.5818C317.526 35.0304 313.823 36.369 310 36.3636Z" fill="white" fill-opacity="0.7"/>
<path d="M244 30L239.174 25.1745L244 30ZM239.174 25.1745C240 24.3491 240.655 23.3692 241.101 22.2907C241.548 21.2122 241.778 20.0563 241.778 18.889C241.778 17.7217 241.548 16.5658 241.101 15.4873C240.655 14.4089 240 13.429 239.174 12.6035C238.349 11.7781 237.369 11.1234 236.291 10.6766C235.212 10.2299 234.056 10 232.889 10C231.722 10 230.566 10.2299 229.487 10.6766C228.409 11.1234 227.429 11.7781 226.604 12.6035C224.937 14.2705 224 16.5315 224 18.889C224 21.2465 224.937 23.5075 226.604 25.1745C228.271 26.8415 230.532 27.778 232.889 27.778C235.247 27.778 237.507 26.8415 239.174 25.1745Z" fill="white" fill-opacity="0.7"/>
<path d="M244 30L239.174 25.1745M239.174 25.1745C240 24.3491 240.655 23.3692 241.101 22.2907C241.548 21.2122 241.778 20.0563 241.778 18.889C241.778 17.7217 241.548 16.5658 241.101 15.4873C240.655 14.4089 240 13.429 239.174 12.6035C238.349 11.7781 237.369 11.1234 236.291 10.6766C235.212 10.2299 234.056 10 232.889 10C231.722 10 230.566 10.2299 229.487 10.6766C228.409 11.1234 227.429 11.7781 226.604 12.6035C224.937 14.2705 224 16.5315 224 18.889C224 21.2465 224.937 23.5075 226.604 25.1745C228.271 26.8415 230.532 27.778 232.889 27.778C235.247 27.778 237.507 26.8415 239.174 25.1745Z" stroke="black" stroke-width="1.5" stroke-linecap="round" stroke-linejoin="round"/>
</g>
<defs>
<filter id="filter0_b_11_201" x="-4" y="-4" width="338" height="48" filterUnits="userSpaceOnUse" color-interpolation-filters="sRGB">
<feFlood flood-opacity="0" result="BackgroundImageFix"/>
<feGaussianBlur in="BackgroundImageFix" stdDeviation="2"/>
<feComposite in2="SourceAlpha" operator="in" result="effect1_backgroundBlur_11_201"/>
<feBlend mode="normal" in="SourceGraphic" in2="effect1_backgroundBlur_11_201" result="shape"/>
</filter>
</defs>
</svg>
