<svg width="332" height="40" viewBox="0 0 332 40" fill="none" xmlns="http://www.w3.org/2000/svg">
<g filter="url(#filter0_b_202_25)">
<rect width="257" height="40" rx="20" fill="white" fill-opacity="0.7"/>
<path fill-rule="evenodd" clip-rule="evenodd" d="M319.114 14.5455C319.114 16.4743 318.347 18.3242 316.981 19.6881C315.616 21.052 313.764 21.8182 311.834 21.8182C309.903 21.8182 308.051 21.052 306.686 19.6881C305.32 18.3242 304.553 16.4743 304.553 14.5455C304.553 12.6166 305.32 10.7668 306.686 9.40287C308.051 8.03897 309.903 7.27274 311.834 7.27274C313.764 7.27274 315.616 8.03897 316.981 9.40287C318.347 10.7668 319.114 12.6166 319.114 14.5455ZM315.474 14.5455C315.474 15.5099 315.09 16.4348 314.408 17.1168C313.725 17.7987 312.799 18.1818 311.834 18.1818C310.868 18.1818 309.942 17.7987 309.26 17.1168C308.577 16.4348 308.193 15.5099 308.193 14.5455C308.193 13.581 308.577 12.6561 309.26 11.9742C309.942 11.2922 310.868 10.9091 311.834 10.9091C312.799 10.9091 313.725 11.2922 314.408 11.9742C315.09 12.6561 315.474 13.581 315.474 14.5455Z" fill="white" fill-opacity="0.7"/>
<path fill-rule="evenodd" clip-rule="evenodd" d="M311.833 0C300.776 0 291.812 8.95455 291.812 20C291.812 31.0455 300.776 40 311.833 40C322.89 40 331.854 31.0455 331.854 20C331.854 8.95455 322.89 0 311.833 0ZM295.453 20C295.453 23.8 296.75 27.2982 298.925 30.0764C300.453 28.0725 302.423 26.4486 304.683 25.3315C306.943 24.2143 309.43 23.6342 311.952 23.6364C314.44 23.634 316.897 24.1991 319.134 25.2887C321.37 26.3783 323.329 27.9635 324.86 29.9236C326.437 27.8575 327.498 25.4458 327.957 22.8883C328.416 20.3308 328.258 17.701 327.498 15.2163C326.737 12.7317 325.395 10.4637 323.583 8.60007C321.77 6.73641 319.54 5.33065 317.076 4.49911C314.612 3.66756 311.985 3.43413 309.412 3.81813C306.84 4.20214 304.396 5.19253 302.283 6.70737C300.17 8.22221 298.448 10.2179 297.26 12.5294C296.073 14.8409 295.453 17.4018 295.453 20ZM311.833 36.3636C308.073 36.3693 304.426 35.077 301.51 32.7055C302.684 31.0268 304.246 29.6562 306.064 28.7103C307.882 27.7645 309.902 27.2713 311.952 27.2727C313.976 27.2711 315.971 27.752 317.772 28.6753C319.573 29.5987 321.127 30.9379 322.306 32.5818C319.367 35.0304 315.66 36.369 311.833 36.3636Z" fill="white" fill-opacity="0.7"/>
<path d="M245.764 30L240.934 25.1745L245.764 30ZM240.934 25.1745C241.76 24.3491 242.416 23.3692 242.863 22.2907C243.31 21.2122 243.54 20.0563 243.54 18.889C243.54 17.7217 243.31 16.5658 242.863 15.4873C242.416 14.4089 241.76 13.429 240.934 12.6035C240.108 11.7781 239.127 11.1234 238.047 10.6766C236.968 10.2299 235.81 10 234.642 10C233.473 10 232.316 10.2299 231.237 10.6766C230.157 11.1234 229.176 11.7781 228.35 12.6035C226.681 14.2705 225.744 16.5315 225.744 18.889C225.744 21.2465 226.681 23.5075 228.35 25.1745C230.019 26.8415 232.282 27.778 234.642 27.778C237.002 27.778 239.265 26.8415 240.934 25.1745Z" fill="white" fill-opacity="0.7"/>
<path d="M245.764 30L240.934 25.1745M240.934 25.1745C241.76 24.3491 242.416 23.3692 242.863 22.2907C243.31 21.2122 243.54 20.0563 243.54 18.889C243.54 17.7217 243.31 16.5658 242.863 15.4873C242.416 14.4089 241.76 13.429 240.934 12.6035C240.108 11.7781 239.127 11.1234 238.047 10.6766C236.968 10.2299 235.81 10 234.642 10C233.473 10 232.316 10.2299 231.237 10.6766C230.157 11.1234 229.176 11.7781 228.35 12.6035C226.681 14.2705 225.744 16.5315 225.744 18.889C225.744 21.2465 226.681 23.5075 228.35 25.1745C230.019 26.8415 232.282 27.778 234.642 27.778C237.002 27.778 239.265 26.8415 240.934 25.1745Z" stroke="black" stroke-width="1.5" stroke-linecap="round" stroke-linejoin="round"/>
</g>
<defs>
<filter id="filter0_b_202_25" x="-4" y="-4" width="339.854" height="48" filterUnits="userSpaceOnUse" color-interpolation-filters="sRGB">
<feFlood flood-opacity="0" result="BackgroundImageFix"/>
<feGaussianBlur in="BackgroundImageFix" stdDeviation="2"/>
<feComposite in2="SourceAlpha" operator="in" result="effect1_backgroundBlur_202_25"/>
<feBlend mode="normal" in="SourceGraphic" in2="effect1_backgroundBlur_202_25" result="shape"/>
</filter>
</defs>
</svg>
