<svg width="40" height="41" viewBox="0 0 40 41" fill="none" xmlns="http://www.w3.org/2000/svg">
<path fill-rule="evenodd" clip-rule="evenodd" d="M20 40.5C31.0457 40.5 40 31.5457 40 20.5C40 9.4543 31.0457 0.5 20 0.5C8.9543 0.5 0 9.4543 0 20.5C0 31.5457 8.9543 40.5 20 40.5ZM26.2978 6.74982C24.3066 6.7497 22.3968 7.53978 20.9887 8.94626L8.60085 21.3213C7.19274 22.7277 6.40161 24.6354 6.40149 26.6246C6.40137 28.6137 7.19228 30.5215 8.60022 31.9281C10.0082 33.3348 11.9178 34.1251 13.9091 34.1252C15.9003 34.1253 17.81 33.3352 19.2181 31.9288L31.606 19.5538C33.0141 18.1473 33.8053 16.2396 33.8054 14.2505C33.8055 12.2613 33.0146 10.3535 31.6067 8.94689C30.1987 7.54024 28.2891 6.74993 26.2978 6.74982ZM24.5274 23.0888L29.8354 17.785H29.8367C30.31 17.3226 30.6867 16.771 30.9451 16.1622C31.2035 15.5533 31.3385 14.8993 31.3421 14.238C31.3458 13.5767 31.2181 12.9212 30.9664 12.3095C30.7147 11.6979 30.344 11.1422 29.8759 10.6746C29.4077 10.207 28.8514 9.83685 28.239 9.58554C27.6267 9.33423 26.9705 9.20676 26.3085 9.21052C25.6465 9.21428 24.9919 9.34919 24.3824 9.60744C23.773 9.86569 23.2209 10.2421 22.7581 10.715L17.4488 16.0175L24.5274 23.0888Z" fill="white"/>
</svg>
