<svg width="148" height="40" viewBox="0 0 148 40" fill="none" xmlns="http://www.w3.org/2000/svg">
<path fill-rule="evenodd" clip-rule="evenodd" d="M74 40C114.869 40 148 31.0457 148 20C148 8.9543 114.869 0 74 0C33.1309 0 0 8.9543 0 20C0 31.0457 33.1309 40 74 40ZM97.3015 6.24982C89.9339 6.2497 82.8679 7.03978 77.6579 8.44626L31.8227 20.8213C26.6127 22.2277 23.6855 24.1354 23.6851 26.1246C23.6846 28.1137 26.611 30.0215 31.8204 31.4281C37.0297 32.8348 44.0954 33.6251 51.463 33.6252C58.8307 33.6253 65.8967 32.8352 71.1067 31.4288L116.942 19.0538C122.152 17.6473 125.079 15.7396 125.079 13.7505C125.08 11.7613 122.154 9.85353 116.944 8.44689C111.735 7.04024 104.669 6.24993 97.3015 6.24982ZM90.751 22.5888L110.391 17.285H110.395C112.146 16.8226 113.54 16.271 114.497 15.6622C115.453 15.0533 115.952 14.3993 115.965 13.738C115.979 13.0767 115.506 12.4212 114.575 11.8095C113.644 11.1979 112.273 10.6422 110.54 10.1746C108.808 9.70701 106.75 9.33685 104.484 9.08554C102.218 8.83423 99.7905 8.70676 97.3412 8.71052C94.8918 8.71428 92.4695 8.84919 90.2145 9.10744C87.9596 9.36569 85.9168 9.74214 84.2044 10.215L64.5601 15.5175L90.751 22.5888Z" fill="white"/>
</svg>
