<svg width="40" height="40" viewBox="0 0 40 40" fill="none" xmlns="http://www.w3.org/2000/svg">
<path fill-rule="evenodd" clip-rule="evenodd" d="M20 40C31.0457 40 40 31.0457 40 20C40 8.9543 31.0457 0 20 0C8.9543 0 0 8.9543 0 20C0 31.0457 8.9543 40 20 40ZM26.2978 6.24982C24.3066 6.2497 22.3968 7.03978 20.9887 8.44626L8.60085 20.8213C7.19274 22.2277 6.40161 24.1354 6.40149 26.1246C6.40137 28.1137 7.19228 30.0215 8.60022 31.4281C10.0082 32.8348 11.9178 33.6251 13.9091 33.6252C15.9003 33.6253 17.81 32.8352 19.2181 31.4288L31.606 19.0538C33.0141 17.6473 33.8053 15.7396 33.8054 13.7505C33.8055 11.7613 33.0146 9.85353 31.6067 8.44689C30.1987 7.04024 28.2891 6.24993 26.2978 6.24982ZM24.5274 22.5888L29.8354 17.285H29.8367C30.31 16.8226 30.6867 16.271 30.9451 15.6622C31.2035 15.0533 31.3385 14.3993 31.3421 13.738C31.3458 13.0767 31.2181 12.4212 30.9664 11.8095C30.7147 11.1979 30.344 10.6422 29.8759 10.1746C29.4077 9.70701 28.8514 9.33685 28.239 9.08554C27.6267 8.83423 26.9705 8.70676 26.3085 8.71052C25.6465 8.71428 24.9919 8.84919 24.3824 9.10744C23.773 9.36569 23.2209 9.74214 22.7581 10.215L17.4488 15.5175L24.5274 22.5888Z" fill="white"/>
</svg>
