<svg width="148" height="40" viewBox="0 0 148 40" fill="none" xmlns="http://www.w3.org/2000/svg">
<path fill-rule="evenodd" clip-rule="evenodd" d="M74 40C114.869 40 148 31.0457 148 20C148 8.9543 114.869 0 74 0C33.1309 0 0 8.9543 0 20C0 31.0457 33.1309 40 74 40ZM96.6612 6.24982C89.3013 6.2497 82.2426 7.03978 77.038 8.44626L31.2505 20.8213C26.046 22.2277 23.1218 24.1354 23.1214 26.1246C23.121 28.1137 26.0443 30.0215 31.2482 31.4281C36.4522 32.8348 43.5105 33.6251 50.8705 33.6252C58.2304 33.6253 65.2891 32.8352 70.4937 31.4288L116.281 19.0538C121.486 17.6473 124.41 15.7396 124.41 13.7505C124.411 11.7613 121.487 9.85353 116.283 8.44689C111.08 7.04024 104.021 6.24993 96.6612 6.24982ZM90.1175 22.5888L109.737 17.285H109.741C111.491 16.8226 112.883 16.271 113.838 15.6622C114.793 15.0533 115.292 14.3993 115.306 13.738C115.319 13.0767 114.847 12.4212 113.917 11.8095C112.987 11.1979 111.617 10.6422 109.886 10.1746C108.156 9.70701 106.1 9.33685 103.836 9.08554C101.573 8.83423 99.1477 8.70676 96.7008 8.71052C94.254 8.71428 91.8342 8.84919 89.5816 9.10744C87.329 9.36569 85.2884 9.74214 83.5778 10.215L63.9539 15.5175L90.1175 22.5888Z" fill="white"/>
</svg>
