<svg width="18" height="18" viewBox="0 0 18 18" fill="none" xmlns="http://www.w3.org/2000/svg">
<path d="M6.5 1C6.5 0.734784 6.39464 0.48043 6.20711 0.292893C6.01957 0.105357 5.76522 0 5.5 0C5.23478 0 4.98043 0.105357 4.79289 0.292893C4.60536 0.48043 4.5 0.734784 4.5 1C4.5 2.827 4.044 4.675 3.106 6.553C2.654 7.455 2.018 8.153 1.316 9.122C0.666 10.018 0 11.112 0 12.5C0 13.4283 0.368749 14.3185 1.02513 14.9749C1.6815 15.6313 2.57174 16 3.5 16C4.072 16 5.012 15.624 5.553 15.894C5.951 16.094 6.209 16.554 6.51 16.874C7.03 17.424 7.774 18 9 18C10.226 18 10.97 17.424 11.49 16.873C11.785 16.561 12.052 16.092 12.447 15.894C12.987 15.624 13.927 16 14.5 16C15.4283 16 16.3185 15.6313 16.9749 14.9749C17.6313 14.3185 18 13.4283 18 12.5C18 11.113 17.335 10.018 16.684 9.122C15.982 8.154 15.346 7.455 14.894 6.552C13.956 4.676 13.5 2.828 13.5 1C13.5 0.734784 13.3946 0.48043 13.2071 0.292893C13.0196 0.105357 12.7652 0 12.5 0C12.2348 0 11.9804 0.105357 11.7929 0.292893C11.6054 0.48043 11.5 0.734784 11.5 1C11.5 3.173 12.044 5.325 13.106 7.447C13.654 8.545 14.518 9.542 15.066 10.297C15.666 11.122 16 11.777 16 12.5C16 12.8978 15.842 13.2794 15.5607 13.5607C15.2794 13.842 14.8978 14 14.5 14C13.484 14 12.533 13.615 11.553 14.106C10.911 14.426 10.513 14.994 10.035 15.501C9.729 15.826 9.475 16 9 16C8.526 16 8.27 15.826 7.965 15.502C7.49 14.997 7.085 14.424 6.447 14.106C5.467 13.616 4.517 14 3.5 14C3.30302 14 3.10796 13.9612 2.92597 13.8858C2.74399 13.8104 2.57863 13.6999 2.43934 13.5607C2.30005 13.4214 2.18956 13.256 2.11418 13.074C2.0388 12.892 2 12.697 2 12.5C2 11.778 2.335 11.122 2.934 10.296C3.482 9.541 4.346 8.545 4.894 7.447C5.956 5.325 6.5 3.173 6.5 1Z" fill="#FF0000"/>
</svg>
