<svg width="16" height="15" viewBox="0 0 16 15" fill="none" xmlns="http://www.w3.org/2000/svg">
<path fill-rule="evenodd" clip-rule="evenodd" d="M15.2944 7.54546C15.2944 9.47431 14.527 11.3242 13.1609 12.6881C11.7948 14.052 9.94195 14.8182 8.01 14.8182C6.07805 14.8182 4.22523 14.052 2.85914 12.6881C1.49305 11.3242 0.725586 9.47431 0.725586 7.54546C0.725586 5.61662 1.49305 3.76677 2.85914 2.40287C4.22523 1.03897 6.07805 0.272736 8.01 0.272736C9.94195 0.272736 11.7948 1.03897 13.1609 2.40287C14.527 3.76677 15.2944 5.61662 15.2944 7.54546ZM11.6522 7.54546C11.6522 8.50989 11.2685 9.43481 10.5854 10.1168C9.90239 10.7987 8.97598 11.1818 8.01 11.1818C7.04403 11.1818 6.11762 10.7987 5.43457 10.1168C4.75153 9.43481 4.36779 8.50989 4.36779 7.54546C4.36779 6.58104 4.75153 5.65612 5.43457 4.97417C6.11762 4.29221 7.04403 3.9091 8.01 3.9091C8.97598 3.9091 9.90239 4.29221 10.5854 4.97417C11.2685 5.65612 11.6522 6.58104 11.6522 7.54546Z" fill="white" fill-opacity="0.7"/>
</svg>
