<svg width="16" height="15" viewBox="0 0 16 15" fill="none" xmlns="http://www.w3.org/2000/svg">
<path fill-rule="evenodd" clip-rule="evenodd" d="M15.2954 7.54568C15.2954 9.47452 14.5279 11.3244 13.1618 12.6883C11.7957 14.0522 9.94293 14.8184 8.01098 14.8184C6.07903 14.8184 4.22621 14.0522 2.86012 12.6883C1.49403 11.3244 0.726563 9.47452 0.726562 7.54568C0.726563 5.61683 1.49403 3.76698 2.86012 2.40308C4.22621 1.03918 6.07903 0.272949 8.01098 0.272949C9.94293 0.272949 11.7957 1.03918 13.1618 2.40308C14.5279 3.76698 15.2954 5.61683 15.2954 7.54568ZM11.6532 7.54568C11.6532 8.5101 11.2695 9.43502 10.5864 10.117C9.90336 10.7989 8.97695 11.182 8.01098 11.182C7.04501 11.182 6.1186 10.7989 5.43555 10.117C4.7525 9.43502 4.36877 8.5101 4.36877 7.54568C4.36877 6.58125 4.7525 5.65633 5.43555 4.97438C6.1186 4.29243 7.04501 3.90931 8.01098 3.90931C8.97695 3.90931 9.90336 4.29243 10.5864 4.97438C11.2695 5.65633 11.6532 6.58125 11.6532 7.54568Z" fill="white" fill-opacity="0.7"/>
</svg>
