<svg width="12" height="13" viewBox="0 0 12 13" fill="none" xmlns="http://www.w3.org/2000/svg">
<path d="M6.70998 11.7364L11.71 6.73643C11.801 6.64133 11.8724 6.52918 11.92 6.40643C12.02 6.16297 12.02 5.88989 11.92 5.64643C11.8724 5.52368 11.801 5.41153 11.71 5.31643L6.70998 0.316431C6.61674 0.223192 6.50605 0.149231 6.38423 0.0987711C6.26241 0.0483108 6.13184 0.0223389 5.99998 0.0223389C5.73368 0.0223389 5.47828 0.128127 5.28998 0.316431C5.10168 0.504734 4.99589 0.760129 4.99589 1.02643C4.99589 1.29273 5.10168 1.54813 5.28998 1.73643L8.58998 5.02643L0.999982 5.02643C0.734765 5.02643 0.480411 5.13179 0.292874 5.31932C0.105338 5.50686 -1.81198e-05 5.76121 -1.81198e-05 6.02643C-1.81198e-05 6.29165 0.105338 6.546 0.292874 6.73354C0.480411 6.92107 0.734765 7.02643 0.999982 7.02643L8.58998 7.02643L5.28998 10.3164C5.19625 10.4094 5.12186 10.52 5.07109 10.6419C5.02032 10.7637 4.99418 10.8944 4.99418 11.0264C4.99418 11.1584 5.02032 11.2891 5.07109 11.411C5.12186 11.5329 5.19625 11.6435 5.28998 11.7364C5.38294 11.8302 5.49355 11.9046 5.6154 11.9553C5.73726 12.0061 5.86797 12.0322 5.99998 12.0322C6.13199 12.0322 6.2627 12.0061 6.38456 11.9553C6.50642 11.9046 6.61702 11.8302 6.70998 11.7364Z" fill="white"/>
</svg>
