<svg width="20" height="25" viewBox="0 0 20 25" fill="none" xmlns="http://www.w3.org/2000/svg">
<path d="M20 9.82143C20 10.0582 19.9042 10.2853 19.7337 10.4528C19.5632 10.6202 19.332 10.7143 19.0909 10.7143C18.8498 10.7143 18.6186 10.6202 18.4481 10.4528C18.2776 10.2853 18.1818 10.0582 18.1818 9.82143C18.1818 7.69022 17.3198 5.64631 15.7854 4.13932C14.251 2.63233 12.17 1.78571 10 1.78571C7.83005 1.78571 5.74897 2.63233 4.21458 4.13932C2.68019 5.64631 1.81818 7.69022 1.81818 9.82143C1.81818 12.8013 2.7875 13.7188 3.81477 14.692C4.79659 15.625 5.90909 16.6752 5.90909 19.1964C5.90909 20.262 6.3401 21.284 7.10729 22.0375C7.87449 22.791 8.91502 23.2143 10 23.2143C11.1636 23.2143 12.0966 22.75 12.9352 21.7533C13.0103 21.6604 13.1036 21.5831 13.2095 21.5259C13.3154 21.4687 13.4318 21.4329 13.552 21.4204C13.6721 21.408 13.7936 21.4192 13.9093 21.4534C14.025 21.4876 14.1326 21.5441 14.2258 21.6196C14.3191 21.6952 14.396 21.7882 14.4522 21.8932C14.5084 21.9983 14.5427 22.1133 14.5531 22.2316C14.5634 22.3498 14.5497 22.4689 14.5127 22.5818C14.4757 22.6948 14.4161 22.7994 14.3375 22.8895C13.1602 24.2902 11.7045 25 10 25C8.43337 24.9982 6.93141 24.3862 5.82364 23.2982C4.71586 22.2102 4.09271 20.7351 4.09091 19.1964C4.09091 17.4342 3.44545 16.8225 2.55227 15.9777C1.41591 14.8996 0 13.5603 0 9.82143C0 7.21662 1.05357 4.7185 2.92893 2.87663C4.8043 1.03475 7.34784 0 10 0C12.6522 0 15.1957 1.03475 17.0711 2.87663C18.9464 4.7185 20 7.21662 20 9.82143ZM15.667 16.192C15.5637 16.1331 15.4495 16.0948 15.331 16.0793C15.2125 16.0639 15.0921 16.0715 14.9767 16.1017C14.8612 16.132 14.7529 16.1843 14.6581 16.2557C14.5632 16.3271 14.4836 16.4162 14.4239 16.5179C14.3238 16.6882 14.1694 16.8213 13.9845 16.8966C13.7995 16.9719 13.5945 16.9851 13.4011 16.9342C13.2077 16.8833 13.0369 16.7712 12.915 16.6152C12.7932 16.4592 12.7272 16.268 12.7273 16.0714C12.7273 15.0301 13.275 14.3125 13.9091 13.4821C14.633 12.5335 15.4545 11.4587 15.4545 9.82143C15.4545 8.40063 14.8799 7.03802 13.8569 6.03336C12.834 5.0287 11.4466 4.46429 10 4.46429C8.55336 4.46429 7.16598 5.0287 6.14305 6.03336C5.12013 7.03802 4.54545 8.40063 4.54545 9.82143C4.54545 10.0582 4.64123 10.2853 4.81172 10.4528C4.98221 10.6202 5.21344 10.7143 5.45455 10.7143C5.69565 10.7143 5.92688 10.6202 6.09737 10.4528C6.26786 10.2853 6.36364 10.0582 6.36364 9.82143C6.36364 8.87423 6.74675 7.96582 7.4287 7.29605C8.11065 6.62627 9.03558 6.25 10 6.25C10.9644 6.25 11.8893 6.62627 12.5713 7.29605C13.2532 7.96582 13.6364 8.87423 13.6364 9.82143C13.6364 10.8627 13.0886 11.5804 12.4545 12.4107C11.7307 13.3594 10.9091 14.4342 10.9091 16.0714C10.9093 16.6609 11.1075 17.2339 11.4729 17.7015C11.8384 18.1691 12.3507 18.5052 12.9304 18.6578C13.5102 18.8104 14.125 18.7709 14.6795 18.5454C15.2341 18.32 15.6974 17.9211 15.9977 17.4107C16.1182 17.206 16.151 16.9627 16.089 16.7342C16.027 16.5057 15.8752 16.3107 15.667 16.192Z" fill="#FF0000"/>
</svg>
