<svg width="21" height="25" viewBox="0 0 21 25" fill="none" xmlns="http://www.w3.org/2000/svg">
<path d="M20.5 9.82143C20.5 10.0582 20.4042 10.2853 20.2337 10.4528C20.0632 10.6202 19.832 10.7143 19.5909 10.7143C19.3498 10.7143 19.1186 10.6202 18.9481 10.4528C18.7776 10.2853 18.6818 10.0582 18.6818 9.82143C18.6818 7.69022 17.8198 5.64631 16.2854 4.13932C14.751 2.63233 12.67 1.78571 10.5 1.78571C8.33005 1.78571 6.24897 2.63233 4.71458 4.13932C3.18019 5.64631 2.31818 7.69022 2.31818 9.82143C2.31818 12.8013 3.2875 13.7188 4.31477 14.692C5.29659 15.625 6.40909 16.6752 6.40909 19.1964C6.40909 20.262 6.8401 21.284 7.60729 22.0375C8.37449 22.791 9.41502 23.2143 10.5 23.2143C11.6636 23.2143 12.5966 22.75 13.4352 21.7533C13.5103 21.6604 13.6036 21.5831 13.7095 21.5259C13.8154 21.4687 13.9318 21.4329 14.052 21.4204C14.1721 21.408 14.2936 21.4192 14.4093 21.4534C14.525 21.4876 14.6326 21.5441 14.7258 21.6196C14.8191 21.6952 14.896 21.7882 14.9522 21.8932C15.0084 21.9983 15.0427 22.1133 15.0531 22.2316C15.0634 22.3498 15.0497 22.4689 15.0127 22.5818C14.9757 22.6948 14.9161 22.7994 14.8375 22.8895C13.6602 24.2902 12.2045 25 10.5 25C8.93337 24.9982 7.43141 24.3862 6.32364 23.2982C5.21586 22.2102 4.59271 20.7351 4.59091 19.1964C4.59091 17.4342 3.94545 16.8225 3.05227 15.9777C1.91591 14.8996 0.5 13.5603 0.5 9.82143C0.5 7.21662 1.55357 4.7185 3.42893 2.87663C5.3043 1.03475 7.84784 0 10.5 0C13.1522 0 15.6957 1.03475 17.5711 2.87663C19.4464 4.7185 20.5 7.21662 20.5 9.82143ZM16.167 16.192C16.0637 16.1331 15.9495 16.0948 15.831 16.0793C15.7125 16.0639 15.5921 16.0715 15.4767 16.1017C15.3612 16.132 15.2529 16.1843 15.1581 16.2557C15.0632 16.3271 14.9836 16.4162 14.9239 16.5179C14.8238 16.6882 14.6694 16.8213 14.4845 16.8966C14.2995 16.9719 14.0945 16.9851 13.9011 16.9342C13.7077 16.8833 13.5369 16.7712 13.415 16.6152C13.2932 16.4592 13.2272 16.268 13.2273 16.0714C13.2273 15.0301 13.775 14.3125 14.4091 13.4821C15.133 12.5335 15.9545 11.4587 15.9545 9.82143C15.9545 8.40063 15.3799 7.03802 14.3569 6.03336C13.334 5.0287 11.9466 4.46429 10.5 4.46429C9.05336 4.46429 7.66598 5.0287 6.64305 6.03336C5.62013 7.03802 5.04545 8.40063 5.04545 9.82143C5.04545 10.0582 5.14123 10.2853 5.31172 10.4528C5.48221 10.6202 5.71344 10.7143 5.95455 10.7143C6.19565 10.7143 6.42688 10.6202 6.59737 10.4528C6.76786 10.2853 6.86364 10.0582 6.86364 9.82143C6.86364 8.87423 7.24675 7.96582 7.9287 7.29605C8.61065 6.62627 9.53558 6.25 10.5 6.25C11.4644 6.25 12.3893 6.62627 13.0713 7.29605C13.7532 7.96582 14.1364 8.87423 14.1364 9.82143C14.1364 10.8627 13.5886 11.5804 12.9545 12.4107C12.2307 13.3594 11.4091 14.4342 11.4091 16.0714C11.4093 16.6609 11.6075 17.2339 11.9729 17.7015C12.3384 18.1691 12.8507 18.5052 13.4304 18.6578C14.0102 18.8104 14.625 18.7709 15.1795 18.5454C15.7341 18.32 16.1974 17.9211 16.4977 17.4107C16.6182 17.206 16.651 16.9627 16.589 16.7342C16.527 16.5057 16.3752 16.3107 16.167 16.192Z" fill="black"/>
</svg>
