<svg width="12" height="13" viewBox="0 0 12 13" fill="none" xmlns="http://www.w3.org/2000/svg">
<path d="M6.7101 11.7364L11.7101 6.73643C11.8011 6.64133 11.8725 6.52918 11.9201 6.40643C12.0201 6.16297 12.0201 5.88989 11.9201 5.64643C11.8725 5.52368 11.8011 5.41153 11.7101 5.31643L6.7101 0.316431C6.61687 0.223192 6.50618 0.149231 6.38435 0.0987711C6.26253 0.0483108 6.13196 0.0223389 6.0001 0.0223389C5.7338 0.0223389 5.47841 0.128127 5.2901 0.316431C5.1018 0.504734 4.99601 0.760129 4.99601 1.02643C4.99601 1.29273 5.1018 1.54813 5.2901 1.73643L8.5901 5.02643L1.0001 5.02643C0.734887 5.02643 0.480533 5.13179 0.292996 5.31932C0.10546 5.50686 0.000103951 5.76121 0.000103951 6.02643C0.000103951 6.29165 0.10546 6.546 0.292996 6.73354C0.480533 6.92107 0.734887 7.02643 1.0001 7.02643L8.5901 7.02643L5.2901 10.3164C5.19637 10.4094 5.12198 10.52 5.07121 10.6419C5.02044 10.7637 4.99431 10.8944 4.99431 11.0264C4.99431 11.1584 5.02044 11.2891 5.07121 11.411C5.12198 11.5329 5.19637 11.6435 5.2901 11.7364C5.38307 11.8302 5.49367 11.9046 5.61553 11.9553C5.73739 12.0061 5.86809 12.0322 6.0001 12.0322C6.13212 12.0322 6.26282 12.0061 6.38468 11.9553C6.50654 11.9046 6.61714 11.8302 6.7101 11.7364Z" fill="white"/>
</svg>
