<svg width="41" height="40" viewBox="0 0 41 40" fill="none" xmlns="http://www.w3.org/2000/svg">
<path fill-rule="evenodd" clip-rule="evenodd" d="M20.0208 0C8.96387 0 0 8.95455 0 20C0 31.0455 8.96387 40 20.0208 40C31.0778 40 40.0417 31.0455 40.0417 20C40.0417 8.95455 31.0778 0 20.0208 0ZM3.64015 20C3.64015 23.8 4.93787 27.2982 7.11286 30.0764C8.64032 28.0725 10.6109 26.4486 12.8705 25.3315C15.1302 24.2143 17.6179 23.6342 20.1391 23.6364C22.6278 23.634 25.0841 24.1991 27.321 25.2887C29.5579 26.3783 31.5164 27.9635 33.0471 29.9236C34.6241 27.8575 35.6859 25.4458 36.1447 22.8883C36.6035 20.3308 36.446 17.701 35.6853 15.2163C34.9246 12.7317 33.5826 10.4637 31.7703 8.60007C29.958 6.73641 27.7275 5.33065 25.2633 4.49911C22.7992 3.66756 20.1723 3.43413 17.5999 3.81813C15.0275 4.20214 12.5836 5.19253 10.4705 6.70737C8.35733 8.22221 6.63565 10.2179 5.4479 12.5294C4.26016 14.8409 3.64048 17.4018 3.64015 20ZM20.0208 36.3636C16.2605 36.3693 12.6136 35.077 9.69736 32.7055C10.8712 31.0268 12.4336 29.6562 14.2515 28.7103C16.0695 27.7645 18.0893 27.2713 20.1391 27.2727C22.1634 27.2711 24.1588 27.752 25.9596 28.6753C27.7605 29.5987 29.3148 30.9379 30.4936 32.5818C27.5547 35.0304 23.8477 36.369 20.0208 36.3636Z" fill="white" fill-opacity="0.7"/>
</svg>
