<svg width="12" height="14" viewBox="0 0 12 14" fill="none" xmlns="http://www.w3.org/2000/svg">
<path d="M6.70998 12.7066L11.71 7.70665C11.801 7.61154 11.8724 7.4994 11.92 7.37665C12.02 7.13318 12.02 6.86011 11.92 6.61665C11.8724 6.49389 11.801 6.38175 11.71 6.28665L6.70998 1.28665C6.61674 1.19341 6.50605 1.11945 6.38423 1.06899C6.26241 1.01853 6.13184 0.992554 5.99998 0.992554C5.73368 0.992554 5.47828 1.09834 5.28998 1.28665C5.10168 1.47495 4.99589 1.73034 4.99589 1.99665C4.99589 2.26295 5.10168 2.51834 5.28998 2.70665L8.58998 5.99665L0.999982 5.99665C0.734765 5.99665 0.480411 6.102 0.292874 6.28954C0.105338 6.47708 -1.81198e-05 6.73143 -1.81198e-05 6.99665C-1.81198e-05 7.26186 0.105338 7.51622 0.292874 7.70375C0.480411 7.89129 0.734765 7.99665 0.999982 7.99665L8.58998 7.99665L5.28998 11.2866C5.19625 11.3796 5.12186 11.4902 5.07109 11.6121C5.02032 11.7339 4.99418 11.8646 4.99418 11.9966C4.99418 12.1287 5.02032 12.2594 5.07109 12.3812C5.12186 12.5031 5.19625 12.6137 5.28998 12.7066C5.38294 12.8004 5.49355 12.8748 5.6154 12.9255C5.73726 12.9763 5.86797 13.0024 5.99998 13.0024C6.13199 13.0024 6.2627 12.9763 6.38456 12.9255C6.50642 12.8748 6.61702 12.8004 6.70998 12.7066Z" fill="white"/>
</svg>
