<svg width="12" height="13" viewBox="0 0 12 13" fill="none" xmlns="http://www.w3.org/2000/svg">
<path d="M6.70998 11.7215L11.71 6.72154C11.801 6.62643 11.8724 6.51429 11.92 6.39154C12.02 6.14808 12.02 5.875 11.92 5.63154C11.8724 5.50879 11.801 5.39664 11.71 5.30154L6.70998 0.301538C6.61674 0.208299 6.50605 0.134339 6.38423 0.0838785C6.26241 0.0334182 6.13184 0.00744629 5.99998 0.00744629C5.73368 0.00744629 5.47828 0.113234 5.28998 0.301538C5.10168 0.489842 4.99589 0.745236 4.99589 1.01154C4.99589 1.27784 5.10168 1.53323 5.28998 1.72154L8.58998 5.01154L0.999982 5.01154C0.734765 5.01154 0.480411 5.1169 0.292874 5.30443C0.105338 5.49197 -1.81198e-05 5.74632 -1.81198e-05 6.01154C-1.81198e-05 6.27675 0.105338 6.53111 0.292874 6.71864C0.480411 6.90618 0.734765 7.01154 0.999982 7.01154L8.58998 7.01154L5.28998 10.3015C5.19625 10.3945 5.12186 10.5051 5.07109 10.627C5.02032 10.7488 4.99418 10.8795 4.99418 11.0115C4.99418 11.1435 5.02032 11.2743 5.07109 11.3961C5.12186 11.518 5.19625 11.6286 5.28998 11.7215C5.38294 11.8153 5.49355 11.8897 5.6154 11.9404C5.73726 11.9912 5.86797 12.0173 5.99998 12.0173C6.13199 12.0173 6.2627 11.9912 6.38456 11.9404C6.50642 11.8897 6.61702 11.8153 6.70998 11.7215Z" fill="white"/>
</svg>
