<svg width="22" height="22" viewBox="0 0 22 22" fill="none" xmlns="http://www.w3.org/2000/svg">
<path d="M20.9035 21L16.0702 16.1745L20.9035 21ZM16.0702 16.1745C16.897 15.3491 17.5528 14.3692 18.0002 13.2907C18.4477 12.2122 18.6779 11.0563 18.6779 9.88902C18.6779 8.72169 18.4477 7.5658 18.0002 6.48734C17.5528 5.40887 16.897 4.42895 16.0702 3.60353C15.2435 2.77811 14.262 2.12335 13.1818 1.67664C12.1016 1.22992 10.9438 1 9.77464 1C8.60544 1 7.44769 1.22992 6.36749 1.67664C5.2873 2.12335 4.3058 2.77811 3.47905 3.60353C1.80936 5.27055 0.871338 7.5315 0.871338 9.88902C0.871338 12.2465 1.80936 14.5075 3.47905 16.1745C5.14875 17.8415 7.41334 18.778 9.77464 18.778C12.1359 18.778 14.4005 17.8415 16.0702 16.1745Z" fill="white" fill-opacity="0.7"/>
<path d="M20.9035 21L16.0702 16.1745M16.0702 16.1745C16.897 15.3491 17.5528 14.3692 18.0002 13.2907C18.4477 12.2122 18.6779 11.0563 18.6779 9.88902C18.6779 8.72169 18.4477 7.5658 18.0002 6.48734C17.5528 5.40887 16.897 4.42895 16.0702 3.60353C15.2435 2.77811 14.262 2.12335 13.1818 1.67664C12.1016 1.22992 10.9438 1 9.77464 1C8.60544 1 7.44769 1.22992 6.36749 1.67664C5.2873 2.12335 4.3058 2.77811 3.47905 3.60353C1.80936 5.27055 0.871338 7.5315 0.871338 9.88902C0.871338 12.2465 1.80936 14.5075 3.47905 16.1745C5.14875 17.8415 7.41334 18.778 9.77464 18.778C12.1359 18.778 14.4005 17.8415 16.0702 16.1745Z" stroke="black" stroke-width="1.5" stroke-linecap="round" stroke-linejoin="round"/>
</svg>
