<svg width="12" height="14" viewBox="0 0 12 14" fill="none" xmlns="http://www.w3.org/2000/svg">
<path d="M6.70998 12.7066L11.71 7.70661C11.801 7.61151 11.8724 7.49937 11.92 7.37662C12.02 7.13315 12.02 6.86008 11.92 6.61661C11.8724 6.49386 11.801 6.38172 11.71 6.28661L6.70998 1.28661C6.61674 1.19338 6.50605 1.11942 6.38423 1.06896C6.26241 1.0185 6.13184 0.992523 5.99998 0.992523C5.73368 0.992523 5.47828 1.09831 5.28998 1.28661C5.10168 1.47492 4.99589 1.73031 4.99589 1.99661C4.99589 2.26292 5.10168 2.51831 5.28998 2.70661L8.58998 5.99661L0.999982 5.99661C0.734765 5.99661 0.480411 6.10197 0.292874 6.28951C0.105338 6.47704 -1.81198e-05 6.7314 -1.81198e-05 6.99661C-1.81198e-05 7.26183 0.105338 7.51619 0.292874 7.70372C0.480411 7.89126 0.734765 7.99661 0.999982 7.99661L8.58998 7.99661L5.28998 11.2866C5.19625 11.3796 5.12186 11.4902 5.07109 11.612C5.02032 11.7339 4.99418 11.8646 4.99418 11.9966C4.99418 12.1286 5.02032 12.2593 5.07109 12.3812C5.12186 12.5031 5.19625 12.6137 5.28998 12.7066C5.38294 12.8003 5.49355 12.8747 5.6154 12.9255C5.73726 12.9763 5.86797 13.0024 5.99998 13.0024C6.13199 13.0024 6.2627 12.9763 6.38456 12.9255C6.50642 12.8747 6.61702 12.8003 6.70998 12.7066Z" fill="white"/>
</svg>
