<svg width="18" height="20" viewBox="0 0 18 20" fill="none" xmlns="http://www.w3.org/2000/svg">
<path fill-rule="evenodd" clip-rule="evenodd" d="M1.3035 8C1.3035 6.64706 1.64662 5.31622 2.30078 4.13194C2.95493 2.94766 3.89875 1.94862 5.04397 1.22826C6.18919 0.507905 7.49839 0.0897531 8.84915 0.0129142C10.1999 -0.0639246 11.5481 0.20306 12.7676 0.788899C13.9871 1.37474 15.0381 2.2603 15.8224 3.36275C16.6066 4.46521 17.0985 5.74855 17.2519 7.09276C17.4053 8.43697 17.2153 9.79814 16.6997 11.049C16.1841 12.2998 15.3596 13.3994 14.3035 14.245V18.5C14.3035 18.8978 14.1455 19.2794 13.8642 19.5607C13.5829 19.842 13.2013 20 12.8035 20H7.8035C7.40567 20 7.02414 19.842 6.74284 19.5607C6.46153 19.2794 6.3035 18.8978 6.3035 18.5V17H5.0695C4.33825 17 3.63216 16.733 3.08395 16.2491C2.53575 15.7651 2.18317 15.0976 2.0925 14.372L1.9525 13.249L1.2055 13.1C0.987892 13.0564 0.782666 12.9651 0.604616 12.8326C0.426566 12.7002 0.280129 12.5298 0.175863 12.3339C0.0715962 12.138 0.012099 11.9214 0.00166038 11.6997C-0.00877822 11.4781 0.030102 11.2568 0.115498 11.052L1.3055 8.194C1.30406 8.12934 1.3034 8.06467 1.3035 8ZM9.3035 2C8.49652 1.99996 7.69783 2.16272 6.95521 2.47852C6.21259 2.79432 5.54131 3.25668 4.98152 3.83794C4.42174 4.41919 3.98497 5.10739 3.69733 5.86137C3.40969 6.61534 3.2771 7.41959 3.3075 8.226C3.3155 8.436 3.2805 8.656 3.1925 8.866L2.1955 11.259L2.6975 11.359C3.00619 11.4208 3.28761 11.5782 3.50191 11.8088C3.7162 12.0394 3.8525 12.3316 3.8915 12.644L4.0765 14.124C4.10674 14.366 4.22436 14.5886 4.40723 14.7499C4.59011 14.9112 4.82563 15.0002 5.0695 15H6.8035C7.20132 15 7.58285 15.158 7.86416 15.4393C8.14546 15.7206 8.3035 16.1022 8.3035 16.5V18H12.3035V14.006C12.3035 13.509 12.5475 13.069 12.9125 12.794C13.9181 12.0372 14.6602 10.9834 15.0339 9.78161C15.4076 8.57985 15.3939 7.29099 14.9949 6.09741C14.5958 4.90383 13.8315 3.86596 12.8101 3.13064C11.7888 2.39532 10.562 1.99979 9.3035 2Z" fill="#FF0000"/>
</svg>
