<svg width="22" height="22" viewBox="0 0 22 22" fill="none" xmlns="http://www.w3.org/2000/svg">
<path d="M20.9032 21L16.07 16.1745L20.9032 21ZM16.07 16.1745C16.8967 15.3491 17.5525 14.3692 18 13.2907C18.4474 12.2122 18.6777 11.0563 18.6777 9.88902C18.6777 8.72169 18.4474 7.5658 18 6.48734C17.5525 5.40887 16.8967 4.42895 16.07 3.60353C15.2432 2.77811 14.2617 2.12335 13.1815 1.67664C12.1013 1.22992 10.9436 1 9.7744 1C8.6052 1 7.44745 1.22992 6.36725 1.67664C5.28705 2.12335 4.30556 2.77811 3.47881 3.60353C1.80912 5.27055 0.871094 7.5315 0.871094 9.88902C0.871094 12.2465 1.80912 14.5075 3.47881 16.1745C5.1485 17.8415 7.41309 18.778 9.7744 18.778C12.1357 18.778 14.4003 17.8415 16.07 16.1745Z" fill="white" fill-opacity="0.7"/>
<path d="M20.9032 21L16.07 16.1745M16.07 16.1745C16.8967 15.3491 17.5525 14.3692 18 13.2907C18.4474 12.2122 18.6777 11.0563 18.6777 9.88902C18.6777 8.72169 18.4474 7.5658 18 6.48734C17.5525 5.40887 16.8967 4.42895 16.07 3.60353C15.2432 2.77811 14.2617 2.12335 13.1815 1.67664C12.1013 1.22992 10.9436 1 9.7744 1C8.6052 1 7.44745 1.22992 6.36725 1.67664C5.28705 2.12335 4.30556 2.77811 3.47881 3.60353C1.80912 5.27055 0.871094 7.5315 0.871094 9.88902C0.871094 12.2465 1.80912 14.5075 3.47881 16.1745C5.1485 17.8415 7.41309 18.778 9.7744 18.778C12.1357 18.778 14.4003 17.8415 16.07 16.1745Z" stroke="black" stroke-width="1.5" stroke-linecap="round" stroke-linejoin="round"/>
</svg>
