<svg width="12" height="13" viewBox="0 0 12 13" fill="none" xmlns="http://www.w3.org/2000/svg">
<path d="M6.7101 11.729L11.7101 6.72898C11.8011 6.63388 11.8725 6.52174 11.9201 6.39898C12.0201 6.15552 12.0201 5.88245 11.9201 5.63898C11.8725 5.51623 11.8011 5.40409 11.7101 5.30898L6.7101 0.308984C6.61687 0.215746 6.50618 0.141785 6.38435 0.0913248C6.26253 0.0408645 6.13196 0.0148926 6.0001 0.0148926C5.7338 0.0148926 5.47841 0.120681 5.2901 0.308984C5.1018 0.497288 4.99601 0.752683 4.99601 1.01898C4.99601 1.28529 5.1018 1.54068 5.2901 1.72898L8.5901 5.01898L1.0001 5.01898C0.734887 5.01898 0.480533 5.12434 0.292996 5.31188C0.10546 5.49941 0.000103951 5.75377 0.000103951 6.01898C0.000103951 6.2842 0.10546 6.53855 0.292996 6.72609C0.480533 6.91363 0.734887 7.01898 1.0001 7.01898L8.5901 7.01898L5.2901 10.309C5.19637 10.4019 5.12198 10.5125 5.07121 10.6344C5.02044 10.7563 4.99431 10.887 4.99431 11.019C4.99431 11.151 5.02044 11.2817 5.07121 11.4036C5.12198 11.5254 5.19637 11.636 5.2901 11.729C5.38307 11.8227 5.49367 11.8971 5.61553 11.9479C5.73739 11.9986 5.86809 12.0248 6.0001 12.0248C6.13212 12.0248 6.26282 11.9986 6.38468 11.9479C6.50654 11.8971 6.61714 11.8227 6.7101 11.729Z" fill="white"/>
</svg>
