<svg width="24" height="24" viewBox="0 0 24 24" fill="none" xmlns="http://www.w3.org/2000/svg">
<path fill-rule="evenodd" clip-rule="evenodd" d="M12.7753 1.92562C14.0085 0.692564 15.6811 -0.000102747 17.425 1.14316e-08C19.1689 0.00010277 20.8413 0.692967 22.0744 1.92617C23.3074 3.15937 24.0001 4.8319 24 6.57581C23.9999 8.31972 23.307 9.99216 22.0738 11.2252L11.2247 22.0744C9.99147 23.3074 8.31894 24.0001 6.57503 24C4.83112 23.9999 3.15868 23.307 1.92562 22.0738C0.692564 20.8406 -0.000102747 19.1681 1.14316e-08 17.4242C0.00010277 15.6803 0.692967 14.0078 1.92617 12.7748L12.7753 1.92562ZM20.5232 9.67455L15.8745 14.3244L9.6751 8.12499L14.3249 3.47628C14.7302 3.06172 15.2137 2.73168 15.7475 2.50528C16.2812 2.27887 16.8546 2.1606 17.4344 2.1573C18.0141 2.154 18.5888 2.26575 19.1251 2.48608C19.6613 2.7064 20.1486 3.03092 20.5586 3.44085C20.9686 3.85078 21.2932 4.33797 21.5136 4.87421C21.734 5.41046 21.8459 5.9851 21.8427 6.56487C21.8395 7.14464 21.7213 7.71801 21.495 8.2518C21.2687 8.78558 20.9388 9.26917 20.5243 9.67455H20.5232Z" fill="white"/>
</svg>
