<svg width="22" height="20" viewBox="0 0 22 20" fill="none" xmlns="http://www.w3.org/2000/svg">
<path d="M6.23333 3.28999e-06C4.58015 3.28999e-06 2.99468 0.746288 1.8257 2.07468C0.656724 3.40308 0 5.20477 0 7.0834V12.9168C3.39175e-05 14.3692 0.392944 15.7864 1.1255 16.9766C1.85805 18.1667 2.89484 19.0722 4.0954 19.5703C5.29595 20.0685 6.60224 20.1352 7.83728 19.7615C9.07233 19.3878 10.1764 18.5916 11 17.481C11.8236 18.5916 12.9277 19.3878 14.1627 19.7615C15.3978 20.1352 16.7041 20.0685 17.9046 19.5703C19.1052 19.0722 20.1419 18.1667 20.8745 16.9766C21.6071 15.7864 22 14.3692 22 12.9168V7.0834C22 5.63102 21.6071 4.21376 20.8745 3.02362C20.1419 1.83349 19.1052 0.928007 17.9046 0.429863C16.7041 -0.0682808 15.3978 -0.135011 14.1627 0.238713C12.9277 0.612437 11.8236 1.40855 11 2.51919C10.4155 1.7293 9.68586 1.09445 8.86237 0.659236C8.03889 0.224022 7.14152 -0.00099239 6.23333 3.28999e-06ZM10.153 4.00004C9.74376 4.96129 9.53189 6.01557 9.53333 7.0834V12.9168C9.53333 14.0218 9.75627 15.0676 10.153 16.0002C9.57482 16.9496 8.74479 17.6643 7.784 18.0399C6.82321 18.4155 5.78194 18.4324 4.8121 18.0881C3.84226 17.7439 2.9946 17.0565 2.39278 16.1262C1.79096 15.1959 1.46648 14.0714 1.46667 12.9168V12.0834C1.46667 12.4665 1.53306 12.8457 1.66204 13.1996C1.79103 13.5535 1.98009 13.875 2.21843 14.1459C2.45676 14.4167 2.73971 14.6315 3.05111 14.7781C3.36251 14.9247 3.69627 15.0001 4.03333 15.0001C4.37039 15.0001 4.70415 14.9247 5.01555 14.7781C5.32696 14.6315 5.6099 14.4167 5.84824 14.1459C6.08658 13.875 6.27564 13.5535 6.40462 13.1996C6.53361 12.8457 6.6 12.4665 6.6 12.0834V7.91674C6.6 7.53372 6.53361 7.15444 6.40462 6.80057C6.27564 6.4467 6.08658 6.12517 5.84824 5.85433C5.6099 5.58349 5.32696 5.36865 5.01555 5.22207C4.70415 5.07549 4.37039 5.00005 4.03333 5.00005C3.69627 5.00005 3.36251 5.07549 3.05111 5.22207C2.73971 5.36865 2.45676 5.58349 2.21843 5.85433C1.98009 6.12517 1.79103 6.4467 1.66204 6.80057C1.53306 7.15444 1.46667 7.53372 1.46667 7.91674V7.0834C1.46648 5.92878 1.79096 4.8043 2.39278 3.87401C2.9946 2.94372 3.84226 2.2563 4.8121 1.91204C5.78194 1.56778 6.82321 1.58469 7.784 1.96031C8.74479 2.33592 9.57482 3.05059 10.153 4.00004ZM11 7.0834C11 5.6468 11.5022 4.26904 12.3961 3.2532C13.29 2.23737 14.5025 1.66669 15.7667 1.66669C17.0309 1.66669 18.2433 2.23737 19.1372 3.2532C20.0311 4.26904 20.5333 5.6468 20.5333 7.0834V12.9168C20.5333 14.3534 20.0311 15.7312 19.1372 16.747C18.2433 17.7628 17.0309 18.3335 15.7667 18.3335C14.5025 18.3335 13.29 17.7628 12.3961 16.747C11.5022 15.7312 11 14.3534 11 12.9168V12.0834C11 12.857 11.2704 13.5989 11.7518 14.1459C12.2331 14.6928 12.8859 15.0001 13.5667 15.0001C14.2474 15.0001 14.9002 14.6928 15.3816 14.1459C15.8629 13.5989 16.1333 12.857 16.1333 12.0834V7.91674C16.1333 7.14319 15.8629 6.40132 15.3816 5.85433C14.9002 5.30734 14.2474 5.00005 13.5667 5.00005C12.8859 5.00005 12.2331 5.30734 11.7518 5.85433C11.2704 6.40132 11 7.14319 11 7.91674V7.0834ZM5.62907 8.21758C5.357 8.47591 4.90307 8.36508 4.61487 7.97258C4.32667 7.57924 4.3142 7.05173 4.58627 6.79423C4.85907 6.5359 5.313 6.6459 5.6012 7.03923C5.88867 7.43257 5.90187 7.96008 5.62907 8.21758ZM15.1771 7.03923C15.4653 7.43257 15.4777 7.96008 15.2064 8.21758C14.9336 8.47591 14.4789 8.36508 14.1915 7.97258C13.9033 7.57924 13.8908 7.05173 14.1629 6.79423C14.4357 6.5359 14.8896 6.6459 15.1778 7.03923H15.1771Z" fill="black"/>
</svg>
