<svg width="12" height="13" viewBox="0 0 12 13" fill="none" xmlns="http://www.w3.org/2000/svg">
<path d="M6.7101 11.7215L11.7101 6.72154C11.8011 6.62643 11.8725 6.51429 11.9201 6.39154C12.0201 6.14808 12.0201 5.875 11.9201 5.63154C11.8725 5.50879 11.8011 5.39664 11.7101 5.30154L6.7101 0.301538C6.61687 0.208299 6.50618 0.134339 6.38435 0.0838785C6.26253 0.0334182 6.13196 0.00744629 6.0001 0.00744629C5.7338 0.00744629 5.47841 0.113234 5.2901 0.301538C5.1018 0.489842 4.99601 0.745236 4.99601 1.01154C4.99601 1.27784 5.1018 1.53323 5.2901 1.72154L8.5901 5.01154L1.0001 5.01154C0.734887 5.01154 0.480533 5.1169 0.292996 5.30443C0.10546 5.49197 0.000103951 5.74632 0.000103951 6.01154C0.000103951 6.27675 0.10546 6.53111 0.292996 6.71864C0.480533 6.90618 0.734887 7.01154 1.0001 7.01154L8.5901 7.01154L5.2901 10.3015C5.19637 10.3945 5.12198 10.5051 5.07121 10.627C5.02044 10.7488 4.99431 10.8795 4.99431 11.0115C4.99431 11.1435 5.02044 11.2743 5.07121 11.3961C5.12198 11.518 5.19637 11.6286 5.2901 11.7215C5.38307 11.8153 5.49367 11.8897 5.61553 11.9404C5.73739 11.9912 5.86809 12.0173 6.0001 12.0173C6.13212 12.0173 6.26282 11.9912 6.38468 11.9404C6.50654 11.8897 6.61714 11.8153 6.7101 11.7215Z" fill="white"/>
</svg>
