<svg width="12" height="14" viewBox="0 0 12 14" fill="none" xmlns="http://www.w3.org/2000/svg">
<path d="M6.7101 12.7066L11.7101 7.70665C11.8011 7.61154 11.8725 7.4994 11.9201 7.37665C12.0201 7.13318 12.0201 6.86011 11.9201 6.61665C11.8725 6.49389 11.8011 6.38175 11.7101 6.28665L6.7101 1.28665C6.61687 1.19341 6.50618 1.11945 6.38435 1.06899C6.26253 1.01853 6.13196 0.992554 6.0001 0.992554C5.7338 0.992554 5.47841 1.09834 5.2901 1.28665C5.1018 1.47495 4.99601 1.73034 4.99601 1.99665C4.99601 2.26295 5.1018 2.51834 5.2901 2.70665L8.5901 5.99665L1.0001 5.99665C0.734887 5.99665 0.480533 6.102 0.292996 6.28954C0.10546 6.47708 0.000103951 6.73143 0.000103951 6.99665C0.000103951 7.26186 0.10546 7.51622 0.292996 7.70375C0.480533 7.89129 0.734887 7.99665 1.0001 7.99665L8.5901 7.99665L5.2901 11.2866C5.19637 11.3796 5.12198 11.4902 5.07121 11.6121C5.02044 11.7339 4.99431 11.8646 4.99431 11.9966C4.99431 12.1287 5.02044 12.2594 5.07121 12.3812C5.12198 12.5031 5.19637 12.6137 5.2901 12.7066C5.38307 12.8004 5.49367 12.8748 5.61553 12.9255C5.73739 12.9763 5.86809 13.0024 6.0001 13.0024C6.13212 13.0024 6.26282 12.9763 6.38468 12.9255C6.50654 12.8748 6.61714 12.8004 6.7101 12.7066Z" fill="white"/>
</svg>
