<svg width="16" height="25" viewBox="0 0 16 25" fill="none" xmlns="http://www.w3.org/2000/svg">
<path d="M11.972 20.5H4.47201M11.972 20.5V22C11.972 22.3978 11.814 22.7794 11.5327 23.0607C11.2514 23.342 10.8698 23.5 10.472 23.5H5.97201C5.57419 23.5 5.19265 23.342 4.91135 23.0607C4.63005 22.7794 4.47201 22.3978 4.47201 22V20.5M11.972 20.5L14.703 2.728C14.7359 2.5143 14.7222 2.29602 14.6628 2.08812C14.6034 1.88022 14.4998 1.68761 14.359 1.52349C14.2183 1.35937 14.0437 1.22762 13.8473 1.13726C13.6509 1.04691 13.4372 1.00008 13.221 1H3.22101C3.00471 0.999938 2.79096 1.04665 2.59441 1.13695C2.39786 1.22724 2.22317 1.35897 2.0823 1.52311C1.94144 1.68725 1.83773 1.87991 1.77831 2.08788C1.71888 2.29585 1.70513 2.51422 1.73801 2.728L4.47201 20.5M8.28001 6.5V12.5M5.28001 9.5H11.28" stroke="white" stroke-width="1.5" stroke-linecap="round" stroke-linejoin="round"/>
</svg>
