<svg width="12" height="13" viewBox="0 0 12 13" fill="none" xmlns="http://www.w3.org/2000/svg">
<path d="M6.70998 11.729L11.71 6.72898C11.801 6.63388 11.8724 6.52174 11.92 6.39898C12.02 6.15552 12.02 5.88245 11.92 5.63898C11.8724 5.51623 11.801 5.40409 11.71 5.30898L6.70998 0.308984C6.61674 0.215746 6.50605 0.141785 6.38423 0.0913248C6.26241 0.0408645 6.13184 0.0148926 5.99998 0.0148926C5.73368 0.0148926 5.47828 0.120681 5.28998 0.308984C5.10168 0.497288 4.99589 0.752683 4.99589 1.01898C4.99589 1.28529 5.10168 1.54068 5.28998 1.72898L8.58998 5.01898L0.999982 5.01898C0.734765 5.01898 0.480411 5.12434 0.292874 5.31188C0.105338 5.49941 -1.81198e-05 5.75377 -1.81198e-05 6.01898C-1.81198e-05 6.2842 0.105338 6.53855 0.292874 6.72609C0.480411 6.91363 0.734765 7.01898 0.999982 7.01898L8.58998 7.01898L5.28998 10.309C5.19625 10.4019 5.12186 10.5125 5.07109 10.6344C5.02032 10.7563 4.99418 10.887 4.99418 11.019C4.99418 11.151 5.02032 11.2817 5.07109 11.4036C5.12186 11.5254 5.19625 11.636 5.28998 11.729C5.38294 11.8227 5.49355 11.8971 5.6154 11.9479C5.73726 11.9986 5.86797 12.0248 5.99998 12.0248C6.13199 12.0248 6.2627 11.9986 6.38456 11.9479C6.50642 11.8971 6.61702 11.8227 6.70998 11.729Z" fill="white"/>
</svg>
